<mxfile host="Electron" agent="Mozilla/5.0 (Macintosh; Intel Mac OS X 10_15_7) AppleWebKit/537.36 (KHTML, like Gecko) draw.io/26.1.1 Chrome/132.0.6834.210 Electron/34.3.3 Safari/537.36" version="26.1.1">
  <diagram name="Page-1" id="CcgPZMJHXUs5u7BQ9XZV">
    <mxGraphModel dx="1018" dy="535" grid="1" gridSize="10" guides="1" tooltips="1" connect="1" arrows="1" fold="1" page="1" pageScale="1" pageWidth="827" pageHeight="1169" math="0" shadow="0">
      <root>
        <mxCell id="0" />
        <mxCell id="1" parent="0" />
        <mxCell id="2fuDExuZBcJRPKIRyoxM-1" value="" style="sketch=0;points=[[0,0,0],[0.25,0,0],[0.5,0,0],[0.75,0,0],[1,0,0],[0,1,0],[0.25,1,0],[0.5,1,0],[0.75,1,0],[1,1,0],[0,0.25,0],[0,0.5,0],[0,0.75,0],[1,0.25,0],[1,0.5,0],[1,0.75,0]];outlineConnect=0;fontColor=#232F3E;fillColor=#7AA116;strokeColor=#ffffff;dashed=0;verticalLabelPosition=bottom;verticalAlign=top;align=center;html=1;fontSize=12;fontStyle=0;aspect=fixed;shape=mxgraph.aws4.resourceIcon;resIcon=mxgraph.aws4.s3;" vertex="1" parent="1">
          <mxGeometry x="680" y="240" width="78" height="78" as="geometry" />
        </mxCell>
        <mxCell id="2fuDExuZBcJRPKIRyoxM-11" value="" style="edgeStyle=orthogonalEdgeStyle;rounded=0;orthogonalLoop=1;jettySize=auto;html=1;" edge="1" parent="1" source="2fuDExuZBcJRPKIRyoxM-2">
          <mxGeometry relative="1" as="geometry">
            <mxPoint x="677" y="279" as="targetPoint" />
          </mxGeometry>
        </mxCell>
        <mxCell id="2fuDExuZBcJRPKIRyoxM-13" value="" style="edgeStyle=orthogonalEdgeStyle;rounded=0;orthogonalLoop=1;jettySize=auto;html=1;" edge="1" parent="1" source="2fuDExuZBcJRPKIRyoxM-2">
          <mxGeometry relative="1" as="geometry">
            <mxPoint x="479" y="120" as="targetPoint" />
          </mxGeometry>
        </mxCell>
        <mxCell id="2fuDExuZBcJRPKIRyoxM-2" value="" style="sketch=0;points=[[0,0,0],[0.25,0,0],[0.5,0,0],[0.75,0,0],[1,0,0],[0,1,0],[0.25,1,0],[0.5,1,0],[0.75,1,0],[1,1,0],[0,0.25,0],[0,0.5,0],[0,0.75,0],[1,0.25,0],[1,0.5,0],[1,0.75,0]];outlineConnect=0;fontColor=#232F3E;fillColor=#8C4FFF;strokeColor=#ffffff;dashed=0;verticalLabelPosition=bottom;verticalAlign=top;align=center;html=1;fontSize=12;fontStyle=0;aspect=fixed;shape=mxgraph.aws4.resourceIcon;resIcon=mxgraph.aws4.cloudfront;" vertex="1" parent="1">
          <mxGeometry x="440" y="240" width="78" height="78" as="geometry" />
        </mxCell>
        <mxCell id="2fuDExuZBcJRPKIRyoxM-3" value="" style="sketch=0;points=[[0,0,0],[0.25,0,0],[0.5,0,0],[0.75,0,0],[1,0,0],[0,1,0],[0.25,1,0],[0.5,1,0],[0.75,1,0],[1,1,0],[0,0.25,0],[0,0.5,0],[0,0.75,0],[1,0.25,0],[1,0.5,0],[1,0.75,0]];outlineConnect=0;fontColor=#232F3E;fillColor=#8C4FFF;strokeColor=#ffffff;dashed=0;verticalLabelPosition=bottom;verticalAlign=top;align=center;html=1;fontSize=12;fontStyle=0;aspect=fixed;shape=mxgraph.aws4.resourceIcon;resIcon=mxgraph.aws4.route_53;" vertex="1" parent="1">
          <mxGeometry x="240" y="240" width="78" height="78" as="geometry" />
        </mxCell>
        <mxCell id="2fuDExuZBcJRPKIRyoxM-4" value="" style="sketch=0;points=[[0,0,0],[0.25,0,0],[0.5,0,0],[0.75,0,0],[1,0,0],[0,1,0],[0.25,1,0],[0.5,1,0],[0.75,1,0],[1,1,0],[0,0.25,0],[0,0.5,0],[0,0.75,0],[1,0.25,0],[1,0.5,0],[1,0.75,0]];outlineConnect=0;fontColor=#232F3E;fillColor=#DD344C;strokeColor=#ffffff;dashed=0;verticalLabelPosition=bottom;verticalAlign=top;align=center;html=1;fontSize=12;fontStyle=0;aspect=fixed;shape=mxgraph.aws4.resourceIcon;resIcon=mxgraph.aws4.certificate_manager_3;" vertex="1" parent="1">
          <mxGeometry x="180" y="80" width="78" height="78" as="geometry" />
        </mxCell>
        <mxCell id="2fuDExuZBcJRPKIRyoxM-6" value="" style="edgeStyle=orthogonalEdgeStyle;rounded=0;orthogonalLoop=1;jettySize=auto;html=1;" edge="1" parent="1" source="2fuDExuZBcJRPKIRyoxM-5" target="2fuDExuZBcJRPKIRyoxM-3">
          <mxGeometry relative="1" as="geometry" />
        </mxCell>
        <mxCell id="2fuDExuZBcJRPKIRyoxM-5" value="User" style="html=1;whiteSpace=wrap;strokeColor=none;fillColor=#0079D6;labelPosition=center;verticalLabelPosition=middle;verticalAlign=top;align=center;fontSize=12;outlineConnect=0;spacingTop=-6;fontColor=#FFFFFF;sketch=0;shape=mxgraph.sitemap.user;" vertex="1" parent="1">
          <mxGeometry y="244" width="120" height="70" as="geometry" />
        </mxCell>
        <mxCell id="2fuDExuZBcJRPKIRyoxM-9" value="" style="edgeStyle=none;orthogonalLoop=1;jettySize=auto;html=1;rounded=0;entryX=0;entryY=0.5;entryDx=0;entryDy=0;entryPerimeter=0;" edge="1" parent="1" target="2fuDExuZBcJRPKIRyoxM-2">
          <mxGeometry width="100" relative="1" as="geometry">
            <mxPoint x="320" y="279" as="sourcePoint" />
            <mxPoint x="320" y="280" as="targetPoint" />
            <Array as="points" />
          </mxGeometry>
        </mxCell>
        <mxCell id="2fuDExuZBcJRPKIRyoxM-14" style="edgeStyle=orthogonalEdgeStyle;rounded=0;orthogonalLoop=1;jettySize=auto;html=1;" edge="1" parent="1">
          <mxGeometry relative="1" as="geometry">
            <mxPoint x="260" y="120" as="targetPoint" />
            <mxPoint x="480" y="120" as="sourcePoint" />
          </mxGeometry>
        </mxCell>
        <mxCell id="2fuDExuZBcJRPKIRyoxM-16" value="anupamadhir.com" style="text;html=1;align=center;verticalAlign=middle;resizable=0;points=[];autosize=1;strokeColor=none;fillColor=none;" vertex="1" parent="1">
          <mxGeometry x="120" y="244" width="120" height="30" as="geometry" />
        </mxCell>
        <mxCell id="2fuDExuZBcJRPKIRyoxM-17" value="Fetch cached website&lt;br&gt;&amp;nbsp;from CDN" style="text;html=1;align=center;verticalAlign=middle;resizable=0;points=[];autosize=1;strokeColor=none;fillColor=none;" vertex="1" parent="1">
          <mxGeometry x="310" y="243" width="140" height="40" as="geometry" />
        </mxCell>
        <mxCell id="2fuDExuZBcJRPKIRyoxM-18" value="Route 53" style="text;html=1;align=center;verticalAlign=middle;resizable=0;points=[];autosize=1;strokeColor=none;fillColor=none;" vertex="1" parent="1">
          <mxGeometry x="244" y="318" width="70" height="30" as="geometry" />
        </mxCell>
        <mxCell id="2fuDExuZBcJRPKIRyoxM-19" value="CloudFront" style="text;html=1;align=center;verticalAlign=middle;resizable=0;points=[];autosize=1;strokeColor=none;fillColor=none;" vertex="1" parent="1">
          <mxGeometry x="439" y="318" width="80" height="30" as="geometry" />
        </mxCell>
        <mxCell id="2fuDExuZBcJRPKIRyoxM-20" value="S3 Bucket for&lt;br&gt;&amp;nbsp;Static Website Content" style="text;html=1;align=center;verticalAlign=middle;resizable=0;points=[];autosize=1;strokeColor=none;fillColor=none;" vertex="1" parent="1">
          <mxGeometry x="644" y="313" width="150" height="40" as="geometry" />
        </mxCell>
        <mxCell id="2fuDExuZBcJRPKIRyoxM-21" value="AWS Certificate&lt;br&gt;&amp;nbsp;Manger" style="text;html=1;align=center;verticalAlign=middle;resizable=0;points=[];autosize=1;strokeColor=none;fillColor=none;" vertex="1" parent="1">
          <mxGeometry x="155" y="43" width="110" height="40" as="geometry" />
        </mxCell>
        <mxCell id="2fuDExuZBcJRPKIRyoxM-23" value="Create and Store SSL/TLS certificate&lt;br&gt;&amp;nbsp;for HTTPS encryption" style="text;html=1;align=center;verticalAlign=middle;resizable=0;points=[];autosize=1;strokeColor=none;fillColor=none;" vertex="1" parent="1">
          <mxGeometry x="258" y="73" width="220" height="40" as="geometry" />
        </mxCell>
      </root>
    </mxGraphModel>
  </diagram>
</mxfile>
